<svg width="1200" height="630" viewBox="0 0 1200 630" xmlns="http://www.w3.org/2000/svg"><mask id="satori_om-id"><rect x="0" y="0" width="1200" height="630" fill="#fff"/></mask><mask id="satori_om-id-0"><rect x="0" y="0" width="1200" height="630" fill="#fff"/></mask><rect x="0" y="0" width="1200" height="630" fill="#fff"/><mask id="satori_om-id-0-0"><rect x="283" y="227" width="634" height="176" fill="#fff"/></mask><mask id="satori_om-id-0-0-0"><rect x="283" y="248" width="634" height="104" fill="#fff"/></mask><path fill="black" d="M292.1 352.3L292.1 342.6L312.6 342.6L312.6 293.3L291.7 293.3L291.7 283.6L324.9 283.6L324.9 338.9Q324.9 344.9 321.5 348.6Q318.1 352.3 311.0 352.3L311.0 352.3L292.1 352.3ZM318.8 275.9L318.8 275.9Q314.5 275.9 312.7 274.1Q310.9 272.3 310.9 269.7L310.9 269.7L310.9 267.4Q310.9 264.8 312.7 263.0Q314.5 261.1 318.8 261.1L318.8 261.1Q323.1 261.1 324.9 263.0Q326.7 264.8 326.7 267.4L326.7 267.4L326.7 269.7Q326.7 272.3 324.9 274.1Q323.1 275.9 318.8 275.9ZM394.8 333.1L387.6 333.1Q383.1 333.1 380.7 330.9Q378.2 328.6 377.8 324.6L377.8 324.6L377.3 324.6Q375.9 329.2 372.0 331.8Q368.1 334.3 362.3 334.3L362.3 334.3Q354.8 334.3 350.4 330.4Q346.0 326.4 346.0 319.4L346.0 319.4Q346.0 304.4 368.0 304.4L368.0 304.4L376.7 304.4L376.7 301.2Q376.7 296.5 374.4 294.1Q372.1 291.7 366.9 291.7L366.9 291.7Q362.2 291.7 359.3 293.5Q356.4 295.3 354.4 298.2L354.4 298.2L347.4 292.2Q349.7 288.1 354.9 285.3Q360.0 282.5 368.2 282.5L368.2 282.5Q377.9 282.5 383.5 287.0Q389.0 291.6 389.0 300.6L389.0 300.6L389.0 323.9L394.8 323.9L394.8 333.1ZM366.4 325.8L366.4 325.8Q370.8 325.8 373.8 323.8Q376.7 321.7 376.7 318.2L376.7 318.2L376.7 311.5L368.2 311.5Q358.2 311.5 358.2 317.9L358.2 317.9L358.2 319.8Q358.2 322.8 360.4 324.3Q362.6 325.8 366.4 325.8ZM405.4 333.1L405.4 323.4L417.7 323.4L417.7 293.3L405.4 293.3L405.4 283.6L430.0 283.6L430.0 297.1L430.7 297.1Q431.4 294.6 432.6 292.1Q433.8 289.7 435.7 287.8Q437.6 285.9 440.2 284.8Q442.9 283.6 446.7 283.6L446.7 283.6L452.1 283.6L452.1 295.1L441.9 295.1Q436.3 295.1 433.1 298.4Q430.0 301.7 430.0 306.7L430.0 306.7L430.0 323.4L447.2 323.4L447.2 333.1L405.4 333.1ZM511.1 338.3L511.1 338.3Q511.1 346.1 504.6 349.8Q498.1 353.5 484.4 353.5L484.4 353.5Q477.7 353.5 473.2 352.7Q468.7 351.9 465.9 350.3Q463.2 348.8 462.0 346.6Q460.9 344.5 460.9 341.8L460.9 341.8Q460.9 337.7 463.3 335.4Q465.7 333.2 470.0 332.2L470.0 332.2L470.0 331.4Q467.1 330.5 465.4 328.7Q463.8 327.0 463.8 323.9L463.8 323.9Q463.8 320.3 466.2 318.5Q468.7 316.6 472.7 315.7L472.7 315.7L472.7 315.2Q468.3 313.1 465.8 309.2Q463.3 305.4 463.3 299.9L463.3 299.9Q463.3 295.8 464.8 292.6Q466.3 289.4 469.0 287.1Q471.7 284.9 475.6 283.7Q479.4 282.5 484.1 282.5L484.1 282.5Q489.1 282.5 493.1 283.8L493.1 283.8L493.1 281.7Q493.1 278.8 495.0 276.9Q496.9 275.0 500.2 275.0L500.2 275.0L509.2 275.0L509.2 284.2L497.5 284.2L497.5 285.8Q501.1 288.0 503.1 291.5Q505.0 295.0 505.0 299.9L505.0 299.9Q505.0 304.1 503.6 307.3Q502.1 310.6 499.3 312.8Q496.6 315.0 492.7 316.2Q488.8 317.4 484.1 317.4L484.1 317.4Q482.2 317.4 480.4 317.3Q478.6 317.1 477.0 316.6L477.0 316.6Q475.7 317.1 474.4 318.2Q473.2 319.2 473.2 321.0L473.2 321.0Q473.2 323.3 475.4 323.8Q477.6 324.3 480.7 324.3L480.7 324.3L491.9 324.3Q497.1 324.3 500.7 325.3Q504.4 326.3 506.7 328.2Q509.0 330.1 510.0 332.7Q511.1 335.3 511.1 338.3ZM499.6 339.2L499.6 339.2Q499.6 337.0 497.8 335.7Q496.0 334.4 491.2 334.4L491.2 334.4L474.1 334.4Q471.3 336.0 471.3 339.2L471.3 339.2Q471.3 341.8 473.4 343.5Q475.6 345.2 480.8 345.2L480.8 345.2L488.7 345.2Q499.6 345.2 499.6 339.2ZM484.1 309.3L484.1 309.3Q488.8 309.3 491.0 307.1Q493.2 304.8 493.2 301.2L493.2 301.2L493.2 298.7Q493.2 295.0 491.0 292.8Q488.8 290.5 484.1 290.5L484.1 290.5Q479.5 290.5 477.3 292.8Q475.1 295.0 475.1 298.7L475.1 298.7L475.1 301.2Q475.1 304.8 477.3 307.1Q479.5 309.3 484.1 309.3ZM542.2 334.3L542.2 334.3Q536.5 334.3 532.1 332.5Q527.6 330.6 524.5 327.3Q521.4 323.9 519.7 319.1Q518.0 314.3 518.0 308.4L518.0 308.4Q518.0 302.4 519.7 297.6Q521.4 292.8 524.5 289.5Q527.6 286.1 532.1 284.3Q536.5 282.5 542.2 282.5L542.2 282.5Q547.8 282.5 552.3 284.3Q556.8 286.1 559.9 289.5Q563.0 292.8 564.7 297.6Q566.4 302.4 566.4 308.4L566.4 308.4Q566.4 314.3 564.7 319.1Q563.0 323.9 559.9 327.3Q556.8 330.6 552.3 332.5Q547.8 334.3 542.2 334.3ZM542.2 324.9L542.2 324.9Q547.5 324.9 550.6 321.7Q553.6 318.5 553.6 312.2L553.6 312.2L553.6 304.5Q553.6 298.3 550.6 295.1Q547.5 291.9 542.2 291.9L542.2 291.9Q536.9 291.9 533.8 295.1Q530.8 298.3 530.8 304.5L530.8 304.5L530.8 312.2Q530.8 318.5 533.8 321.7Q536.9 324.9 542.2 324.9ZM590.5 333.1L578.2 333.1L578.2 283.6L590.5 283.6L590.5 292.3L591.0 292.3Q592.6 288.3 596.0 285.4Q599.4 282.5 605.5 282.5L605.5 282.5Q612.8 282.5 617.3 287.3Q621.9 292.2 621.9 301.2L621.9 301.2L621.9 333.1L609.6 333.1L609.6 302.9Q609.6 292.2 600.3 292.2L600.3 292.2Q598.4 292.2 596.6 292.6Q594.9 293.1 593.5 294.1Q592.1 295.1 591.3 296.6Q590.5 298.0 590.5 300.0L590.5 300.0L590.5 333.1ZM657.2 334.3L657.2 334.3Q649.0 334.3 643.1 331.8Q637.1 329.2 633.8 324.9L633.8 324.9L641.0 318.4Q644.1 321.7 648.0 323.5Q652.0 325.4 657.3 325.4L657.3 325.4Q661.9 325.4 664.7 323.8Q667.5 322.3 667.5 319.1L667.5 319.1Q667.5 316.4 665.6 315.5Q663.7 314.5 660.7 314.0L660.7 314.0L652.7 312.8Q649.6 312.3 646.7 311.4Q643.8 310.5 641.5 308.9Q639.3 307.2 637.9 304.7Q636.6 302.1 636.6 298.5L636.6 298.5Q636.6 290.7 642.4 286.6Q648.2 282.5 658.4 282.5L658.4 282.5Q665.6 282.5 670.6 284.5Q675.6 286.5 678.9 290.1L678.9 290.1L672.5 297.2Q670.4 294.9 666.9 293.2Q663.4 291.4 658.0 291.4L658.0 291.4Q648.6 291.4 648.6 297.2L648.6 297.2Q648.6 299.9 650.5 300.9Q652.4 301.9 655.5 302.4L655.5 302.4L663.4 303.7Q666.5 304.2 669.4 305.1Q672.4 306.0 674.6 307.6Q676.9 309.2 678.2 311.7Q679.6 314.2 679.6 317.9L679.6 317.9Q679.6 325.6 673.7 329.9Q667.8 334.3 657.2 334.3ZM715.0 334.2L715.0 334.2Q710.0 334.2 707.9 332.1Q705.8 330.0 705.8 326.9L705.8 326.9L705.8 324.0Q705.8 321.0 707.9 318.8Q710.0 316.7 715.0 316.7L715.0 316.7Q720.0 316.7 722.1 318.8Q724.2 321.0 724.2 324.0L724.2 324.0L724.2 326.9Q724.2 330.0 722.1 332.1Q720.0 334.2 715.0 334.2ZM782.5 333.1L782.5 324.4L781.8 324.4Q779.8 328.9 776.3 331.6Q772.8 334.3 767.0 334.3L767.0 334.3Q762.8 334.3 759.3 332.7Q755.8 331.1 753.3 327.9Q750.8 324.7 749.5 319.8Q748.1 314.9 748.1 308.4L748.1 308.4Q748.1 295.3 753.3 288.9Q758.5 282.5 767.0 282.5L767.0 282.5Q772.8 282.5 776.3 285.1Q779.8 287.8 781.8 292.3L781.8 292.3L782.5 292.3L782.5 262.1L794.8 262.1L794.8 333.1L782.5 333.1ZM772.2 324.5L772.2 324.5Q774.3 324.5 776.2 324.0Q778.1 323.4 779.5 322.4Q780.9 321.4 781.7 319.8Q782.5 318.3 782.5 316.2L782.5 316.2L782.5 300.6Q782.5 298.5 781.7 296.9Q780.9 295.3 779.5 294.3Q778.1 293.3 776.2 292.8Q774.3 292.2 772.2 292.2L772.2 292.2Q766.8 292.2 763.9 295.5Q761.0 298.8 761.0 304.4L761.0 304.4L761.0 312.3Q761.0 318.0 763.9 321.2Q766.8 324.5 772.2 324.5ZM831.4 334.3L831.4 334.3Q825.4 334.3 820.8 332.5Q816.2 330.6 813.1 327.3Q809.9 323.9 808.3 319.2Q806.7 314.4 806.7 308.5L806.7 308.5Q806.7 302.4 808.4 297.6Q810.0 292.8 813.1 289.5Q816.2 286.1 820.6 284.3Q824.9 282.5 830.4 282.5L830.4 282.5Q835.8 282.5 840.1 284.2Q844.4 286.0 847.4 289.3Q850.5 292.5 852.1 297.1Q853.7 301.8 853.7 307.3L853.7 307.3L853.7 311.4L819.0 311.4L819.0 312.6Q819.0 318.0 822.3 321.3Q825.7 324.6 831.7 324.6L831.7 324.6Q836.3 324.6 839.7 322.7Q843.0 320.9 845.2 317.8L845.2 317.8L852.2 324.8Q849.5 328.7 844.4 331.5Q839.2 334.3 831.4 334.3ZM830.5 291.5L830.5 291.5Q825.3 291.5 822.1 294.7Q819.0 298.0 819.0 303.4L819.0 303.4L819.0 304.1L841.4 304.1L841.4 303.2Q841.4 297.8 838.5 294.6Q835.6 291.5 830.5 291.5ZM895.2 333.1L880.4 333.1L862.6 283.6L875.5 283.6L882.1 304.6L887.7 322.9L888.4 322.9L893.9 304.6L900.6 283.6L913.0 283.6L895.2 333.1Z "/><mask id="satori_om-id-0-0-1"><rect x="365" y="366" width="471" height="21" fill="#fff"/></mask><path fill="black" d="M369.7 382.1L369.7 382.1Q368.2 382.1 367.2 381.6Q366.2 381.1 365.6 380.3L365.6 380.3L366.8 379.0Q367.4 379.7 368.2 380.1Q368.9 380.4 369.7 380.4L369.7 380.4Q370.7 380.4 371.2 380.0Q371.7 379.5 371.7 378.7L371.7 378.7Q371.7 378.1 371.3 377.7Q371.0 377.4 370.0 377.2L370.0 377.2L368.9 377.0Q367.3 376.8 366.6 375.9Q366.0 375.0 366.0 373.9L366.0 373.9Q366.0 372.3 367.0 371.4Q368.1 370.6 369.9 370.6L369.9 370.6Q371.2 370.6 372.2 371.0Q373.1 371.4 373.7 372.1L373.7 372.1L372.5 373.4Q372.0 372.9 371.4 372.6Q370.8 372.3 369.9 372.3L369.9 372.3Q368.1 372.3 368.1 373.8L368.1 373.8Q368.1 374.4 368.5 374.8Q368.9 375.1 369.8 375.3L369.8 375.3L371.0 375.5Q372.4 375.7 373.1 376.5Q373.8 377.3 373.8 378.6L373.8 378.6Q373.8 379.4 373.6 380.0Q373.3 380.7 372.8 381.1Q372.2 381.6 371.5 381.9Q370.7 382.1 369.7 382.1ZM379.9 372.4L379.9 372.4Q379.2 372.4 378.9 372.1Q378.6 371.8 378.6 371.3L378.6 371.3L378.6 371.0Q378.6 370.5 378.9 370.2Q379.2 369.9 379.9 369.9L379.9 369.9Q380.6 369.9 380.9 370.2Q381.2 370.5 381.2 371.0L381.2 371.0L381.2 371.3Q381.2 371.8 380.9 372.1Q380.6 372.4 379.9 372.4ZM376.2 381.9L376.2 380.3L378.9 380.3L378.9 375.3L376.2 375.3L376.2 373.7L380.9 373.7L380.9 380.3L383.5 380.3L383.5 381.9L376.2 381.9ZM386.5 381.9L384.8 381.9L384.8 373.7L386.5 373.7L386.5 374.8L386.6 374.8Q386.8 374.3 387.1 373.9Q387.5 373.5 388.2 373.5L388.2 373.5Q388.8 373.5 389.1 373.8Q389.5 374.2 389.6 374.9L389.6 374.9L389.7 374.9Q389.9 374.3 390.3 373.9Q390.7 373.5 391.5 373.5L391.5 373.5Q392.4 373.5 392.8 374.1Q393.2 374.8 393.2 376.1L393.2 376.1L393.2 381.9L391.5 381.9L391.5 376.3Q391.5 375.6 391.3 375.3Q391.1 375.0 390.7 375.0L390.7 375.0Q390.3 375.0 390.1 375.3Q389.8 375.5 389.8 376.0L389.8 376.0L389.8 381.9L388.2 381.9L388.2 376.3Q388.2 375.6 388.0 375.3Q387.8 375.0 387.4 375.0L387.4 375.0Q387.0 375.0 386.7 375.3Q386.5 375.5 386.5 376.0L386.5 376.0L386.5 381.9ZM394.9 385.1L394.9 373.7L397.0 373.7L397.0 375.1L397.1 375.1Q397.4 374.4 398.0 373.9Q398.6 373.5 399.5 373.5L399.5 373.5Q400.2 373.5 400.8 373.7Q401.4 374.0 401.8 374.5Q402.2 375.1 402.5 375.9Q402.7 376.7 402.7 377.8L402.7 377.8Q402.7 378.9 402.5 379.7Q402.2 380.5 401.8 381.1Q401.4 381.6 400.8 381.9Q400.2 382.1 399.5 382.1L399.5 382.1Q398.6 382.1 398.0 381.7Q397.4 381.2 397.1 380.5L397.1 380.5L397.0 380.5L397.0 385.1L394.9 385.1ZM398.7 380.5L398.7 380.5Q399.6 380.5 400.0 379.9Q400.5 379.4 400.5 378.5L400.5 378.5L400.5 377.1Q400.5 376.2 400.0 375.7Q399.6 375.1 398.7 375.1L398.7 375.1Q398.0 375.1 397.5 375.5Q397.0 375.8 397.0 376.5L397.0 376.5L397.0 379.1Q397.0 379.8 397.5 380.1Q398.0 380.5 398.7 380.5ZM404.6 381.9L404.6 380.3L407.2 380.3L407.2 371.7L404.6 371.7L404.6 370.1L409.2 370.1L409.2 380.3L411.9 380.3L411.9 381.9L404.6 381.9ZM418.3 372.4L418.3 372.4Q417.6 372.4 417.3 372.1Q417.0 371.8 417.0 371.3L417.0 371.3L417.0 371.0Q417.0 370.5 417.3 370.2Q417.6 369.9 418.3 369.9L418.3 369.9Q419.0 369.9 419.3 370.2Q419.6 370.5 419.6 371.0L419.6 371.0L419.6 371.3Q419.6 371.8 419.3 372.1Q419.0 372.4 418.3 372.4ZM414.6 381.9L414.6 380.3L417.3 380.3L417.3 375.3L414.6 375.3L414.6 373.7L419.3 373.7L419.3 380.3L421.9 380.3L421.9 381.9L414.6 381.9ZM423.8 381.9L423.8 380.3L426.3 380.3L426.3 375.3L423.6 375.3L423.6 373.7L426.3 373.7L426.3 372.3Q426.3 371.8 426.5 371.4Q426.6 371.0 426.9 370.7Q427.2 370.4 427.6 370.3Q428.1 370.1 428.6 370.1L428.6 370.1L431.4 370.1L431.4 371.7L428.4 371.7L428.4 373.7L431.4 373.7L431.4 375.3L428.4 375.3L428.4 380.3L431.1 380.3L431.1 381.9L423.8 381.9ZM438.0 377.1L439.3 373.7L441.3 373.7L437.4 383.4Q437.0 384.2 436.5 384.7Q435.9 385.1 434.9 385.1L434.9 385.1L433.4 385.1L433.4 383.5L435.4 383.5L436.0 381.8L432.7 373.7L434.8 373.7L436.1 377.1L437.0 379.7L437.1 379.7L438.0 377.1ZM447.1 372.4L447.1 372.4Q446.4 372.4 446.1 372.1Q445.8 371.8 445.8 371.3L445.8 371.3L445.8 371.0Q445.8 370.5 446.1 370.2Q446.4 369.9 447.1 369.9L447.1 369.9Q447.8 369.9 448.1 370.2Q448.4 370.5 448.4 371.0L448.4 371.0L448.4 371.3Q448.4 371.8 448.1 372.1Q447.8 372.4 447.1 372.4ZM443.4 381.9L443.4 380.3L446.1 380.3L446.1 375.3L443.4 375.3L443.4 373.7L448.1 373.7L448.1 380.3L450.7 380.3L450.7 381.9L443.4 381.9ZM454.6 381.9L452.6 381.9L452.6 373.7L454.6 373.7L454.6 375.1L454.7 375.1Q455.0 374.5 455.6 374.0Q456.1 373.5 457.1 373.5L457.1 373.5Q458.4 373.5 459.1 374.3Q459.9 375.1 459.9 376.6L459.9 376.6L459.9 381.9L457.8 381.9L457.8 376.9Q457.8 375.1 456.3 375.1L456.3 375.1Q456.0 375.1 455.7 375.2Q455.4 375.3 455.2 375.4Q454.9 375.6 454.8 375.8Q454.6 376.1 454.6 376.4L454.6 376.4L454.6 381.9ZM470.2 382.8L470.2 382.8Q470.2 384.1 469.1 384.7Q468.1 385.3 465.8 385.3L465.8 385.3Q464.6 385.3 463.9 385.2Q463.1 385.0 462.7 384.8Q462.2 384.5 462.0 384.2Q461.8 383.8 461.8 383.4L461.8 383.4Q461.8 382.7 462.2 382.3Q462.6 381.9 463.4 381.8L463.4 381.8L463.4 381.6Q462.9 381.5 462.6 381.2Q462.3 380.9 462.3 380.4L462.3 380.4Q462.3 379.8 462.7 379.5Q463.1 379.2 463.8 379.0L463.8 379.0L463.8 378.9Q463.1 378.6 462.7 377.9Q462.2 377.3 462.2 376.4L462.2 376.4Q462.2 375.7 462.5 375.2Q462.7 374.6 463.2 374.3Q463.7 373.9 464.3 373.7Q464.9 373.5 465.7 373.5L465.7 373.5Q466.6 373.5 467.2 373.7L467.2 373.7L467.2 373.3Q467.2 372.9 467.5 372.5Q467.8 372.2 468.4 372.2L468.4 372.2L469.9 372.2L469.9 373.8L467.9 373.8L467.9 374.0Q468.6 374.4 468.9 375.0Q469.2 375.6 469.2 376.4L469.2 376.4Q469.2 377.1 469.0 377.6Q468.7 378.2 468.3 378.5Q467.8 378.9 467.2 379.1Q466.5 379.3 465.7 379.3L465.7 379.3Q465.4 379.3 465.1 379.3Q464.8 379.3 464.5 379.2L464.5 379.2Q464.3 379.3 464.1 379.4Q463.9 379.6 463.9 379.9L463.9 379.9Q463.9 380.3 464.3 380.4Q464.6 380.5 465.1 380.5L465.1 380.5L467.0 380.5Q467.9 380.5 468.5 380.6Q469.1 380.8 469.5 381.1Q469.9 381.4 470.0 381.8Q470.2 382.3 470.2 382.8ZM468.3 382.9L468.3 382.9Q468.3 382.6 468.0 382.3Q467.7 382.1 466.9 382.1L466.9 382.1L464.1 382.1Q463.6 382.4 463.6 382.9L463.6 382.9Q463.6 383.4 463.9 383.7Q464.3 383.9 465.2 383.9L465.2 383.9L466.5 383.9Q468.3 383.9 468.3 382.9ZM465.7 378.0L465.7 378.0Q466.5 378.0 466.9 377.6Q467.2 377.2 467.2 376.6L467.2 376.6L467.2 376.2Q467.2 375.6 466.9 375.2Q466.5 374.8 465.7 374.8L465.7 374.8Q465.0 374.8 464.6 375.2Q464.2 375.6 464.2 376.2L464.2 376.2L464.2 376.6Q464.2 377.2 464.6 377.6Q465.0 378.0 465.7 378.0Z M485.0 382.1L485.0 382.1Q483.6 382.1 482.6 381.7Q481.6 381.3 481.1 380.5L481.1 380.5L482.3 379.5Q482.8 380.0 483.4 380.3Q484.1 380.6 485.0 380.6L485.0 380.6Q485.8 380.6 486.2 380.4Q486.7 380.1 486.7 379.6L486.7 379.6Q486.7 379.1 486.4 379.0Q486.1 378.8 485.5 378.7L485.5 378.7L484.2 378.5Q483.7 378.5 483.2 378.3Q482.7 378.1 482.4 377.9Q482.0 377.6 481.8 377.2Q481.5 376.8 481.5 376.1L481.5 376.1Q481.5 374.9 482.5 374.2Q483.5 373.5 485.2 373.5L485.2 373.5Q486.4 373.5 487.2 373.8Q488.0 374.1 488.6 374.8L488.6 374.8L487.5 375.9Q487.2 375.6 486.6 375.3Q486.0 375.0 485.1 375.0L485.1 375.0Q483.5 375.0 483.5 375.9L483.5 375.9Q483.5 376.4 483.8 376.6Q484.2 376.7 484.7 376.8L484.7 376.8L486.0 377.0Q486.5 377.1 487.0 377.2Q487.5 377.4 487.9 377.7Q488.2 377.9 488.5 378.4Q488.7 378.8 488.7 379.4L488.7 379.4Q488.7 380.7 487.7 381.4Q486.7 382.1 485.0 382.1ZM494.6 382.1L494.6 382.1Q493.7 382.1 492.9 381.8Q492.2 381.5 491.6 380.9Q491.1 380.4 490.8 379.6Q490.6 378.8 490.6 377.8L490.6 377.8Q490.6 376.8 490.8 376.0Q491.1 375.2 491.6 374.6Q492.2 374.1 492.9 373.8Q493.7 373.5 494.6 373.5L494.6 373.5Q495.5 373.5 496.3 373.8Q497.0 374.1 497.6 374.6Q498.1 375.2 498.4 376.0Q498.6 376.8 498.6 377.8L498.6 377.8Q498.6 378.8 498.4 379.6Q498.1 380.4 497.6 380.9Q497.0 381.5 496.3 381.8Q495.5 382.1 494.6 382.1ZM494.6 380.5L494.6 380.5Q495.5 380.5 496.0 380.0Q496.5 379.5 496.5 378.4L496.5 378.4L496.5 377.2Q496.5 376.1 496.0 375.6Q495.5 375.0 494.6 375.0L494.6 375.0Q493.7 375.0 493.2 375.6Q492.7 376.1 492.7 377.2L492.7 377.2L492.7 378.4Q492.7 379.5 493.2 380.0Q493.7 380.5 494.6 380.5ZM500.6 381.9L500.6 380.3L503.1 380.3L503.1 375.3L500.4 375.3L500.4 373.7L503.1 373.7L503.1 372.3Q503.1 371.8 503.3 371.4Q503.4 371.0 503.7 370.7Q504.0 370.4 504.4 370.3Q504.9 370.1 505.4 370.1L505.4 370.1L508.2 370.1L508.2 371.7L505.2 371.7L505.2 373.7L508.2 373.7L508.2 375.3L505.2 375.3L505.2 380.3L507.9 380.3L507.9 381.9L500.6 381.9ZM517.5 381.9L514.4 381.9Q513.2 381.9 512.6 381.3Q512.1 380.7 512.1 379.7L512.1 379.7L512.1 375.3L509.7 375.3L509.7 373.7L511.3 373.7Q511.8 373.7 512.0 373.5Q512.2 373.3 512.2 372.8L512.2 372.8L512.2 370.8L514.1 370.8L514.1 373.7L517.5 373.7L517.5 375.3L514.1 375.3L514.1 380.3L517.5 380.3L517.5 381.9ZM519.9 381.9L518.8 373.7L520.5 373.7L521.2 380.5L521.4 380.5L522.5 373.7L524.4 373.7L525.5 380.5L525.6 380.5L526.3 373.7L528.0 373.7L526.9 381.9L524.4 381.9L523.5 375.9L523.3 375.9L522.4 381.9L519.9 381.9ZM537.2 381.9L536.0 381.9Q535.3 381.9 534.9 381.5Q534.5 381.2 534.4 380.5L534.4 380.5L534.3 380.5Q534.1 381.3 533.4 381.7Q532.8 382.1 531.8 382.1L531.8 382.1Q530.6 382.1 529.8 381.5Q529.1 380.8 529.1 379.6L529.1 379.6Q529.1 377.1 532.8 377.1L532.8 377.1L534.2 377.1L534.2 376.6Q534.2 375.8 533.8 375.4Q533.4 375.0 532.6 375.0L532.6 375.0Q531.8 375.0 531.3 375.3Q530.8 375.6 530.5 376.1L530.5 376.1L529.3 375.1Q529.7 374.4 530.6 373.9Q531.4 373.5 532.8 373.5L532.8 373.5Q534.4 373.5 535.3 374.2Q536.3 375.0 536.3 376.5L536.3 376.5L536.3 380.4L537.2 380.4L537.2 381.9ZM532.5 380.7L532.5 380.7Q533.2 380.7 533.7 380.4Q534.2 380.0 534.2 379.4L534.2 379.4L534.2 378.3L532.8 378.3Q531.1 378.3 531.1 379.4L531.1 379.4L531.1 379.7Q531.1 380.2 531.5 380.5Q531.9 380.7 532.5 380.7ZM539.0 381.9L539.0 380.3L541.0 380.3L541.0 375.3L539.0 375.3L539.0 373.7L543.1 373.7L543.1 375.9L543.2 375.9Q543.3 375.5 543.5 375.1Q543.7 374.7 544.0 374.4Q544.4 374.1 544.8 373.9Q545.3 373.7 545.9 373.7L545.9 373.7L546.8 373.7L546.8 375.6L545.1 375.6Q544.2 375.6 543.6 376.1Q543.1 376.7 543.1 377.5L543.1 377.5L543.1 380.3L546.0 380.3L546.0 381.9L539.0 381.9ZM552.4 382.1L552.4 382.1Q551.4 382.1 550.6 381.8Q549.9 381.5 549.3 380.9Q548.8 380.4 548.6 379.6Q548.3 378.8 548.3 377.8L548.3 377.8Q548.3 376.8 548.6 376.0Q548.8 375.2 549.4 374.6Q549.9 374.1 550.6 373.8Q551.3 373.5 552.2 373.5L552.2 373.5Q553.1 373.5 553.8 373.8Q554.6 374.1 555.1 374.6Q555.6 375.2 555.8 375.9Q556.1 376.7 556.1 377.6L556.1 377.6L556.1 378.3L550.3 378.3L550.3 378.5Q550.3 379.4 550.9 379.9Q551.4 380.5 552.5 380.5L552.5 380.5Q553.2 380.5 553.8 380.2Q554.3 379.9 554.7 379.4L554.7 379.4L555.9 380.5Q555.4 381.2 554.6 381.7Q553.7 382.1 552.4 382.1ZM552.2 375.0L552.2 375.0Q551.4 375.0 550.9 375.5Q550.3 376.1 550.3 377.0L550.3 377.0L550.3 377.1L554.1 377.1L554.1 376.9Q554.1 376.0 553.6 375.5Q553.1 375.0 552.2 375.0ZM559.9 384.3L560.8 379.3L563.5 379.3L561.4 384.3L559.9 384.3Z M581.2 382.1L581.2 382.1Q580.2 382.1 579.4 381.8Q578.7 381.5 578.1 380.9Q577.6 380.4 577.4 379.6Q577.1 378.8 577.1 377.8L577.1 377.8Q577.1 376.8 577.4 376.0Q577.6 375.2 578.2 374.6Q578.7 374.1 579.4 373.8Q580.1 373.5 581.0 373.5L581.0 373.5Q581.9 373.5 582.6 373.8Q583.4 374.1 583.9 374.6Q584.4 375.2 584.6 375.9Q584.9 376.7 584.9 377.6L584.9 377.6L584.9 378.3L579.1 378.3L579.1 378.5Q579.1 379.4 579.7 379.9Q580.2 380.5 581.3 380.5L581.3 380.5Q582.0 380.5 582.6 380.2Q583.1 379.9 583.5 379.4L583.5 379.4L584.7 380.5Q584.2 381.2 583.4 381.7Q582.5 382.1 581.2 382.1ZM581.0 375.0L581.0 375.0Q580.2 375.0 579.7 375.5Q579.1 376.1 579.1 377.0L579.1 377.0L579.1 377.1L582.9 377.1L582.9 376.9Q582.9 376.0 582.4 375.5Q581.9 375.0 581.0 375.0ZM589.0 381.9L587 381.9L587 373.7L589.0 373.7L589.0 375.1L589.1 375.1Q589.4 374.5 590.0 374.0Q590.5 373.5 591.5 373.5L591.5 373.5Q592.8 373.5 593.5 374.3Q594.3 375.1 594.3 376.6L594.3 376.6L594.3 381.9L592.2 381.9L592.2 376.9Q592.2 375.1 590.7 375.1L590.7 375.1Q590.4 375.1 590.1 375.2Q589.8 375.3 589.6 375.4Q589.3 375.6 589.2 375.8Q589.0 376.1 589.0 376.4L589.0 376.4L589.0 381.9ZM604.6 382.8L604.6 382.8Q604.6 384.1 603.5 384.7Q602.5 385.3 600.2 385.3L600.2 385.3Q599.0 385.3 598.3 385.2Q597.5 385.0 597.1 384.8Q596.6 384.5 596.4 384.2Q596.2 383.8 596.2 383.4L596.2 383.4Q596.2 382.7 596.6 382.3Q597.0 381.9 597.8 381.8L597.8 381.8L597.8 381.6Q597.3 381.5 597.0 381.2Q596.7 380.9 596.7 380.4L596.7 380.4Q596.7 379.8 597.1 379.5Q597.5 379.2 598.2 379.0L598.2 379.0L598.2 378.9Q597.5 378.6 597.1 377.9Q596.6 377.3 596.6 376.4L596.6 376.4Q596.6 375.7 596.9 375.2Q597.1 374.6 597.6 374.3Q598.1 373.9 598.7 373.7Q599.3 373.5 600.1 373.5L600.1 373.5Q601.0 373.5 601.6 373.7L601.6 373.7L601.6 373.3Q601.6 372.9 601.9 372.5Q602.2 372.2 602.8 372.2L602.8 372.2L604.3 372.2L604.3 373.8L602.3 373.8L602.3 374.0Q603.0 374.4 603.3 375.0Q603.6 375.6 603.6 376.4L603.6 376.4Q603.6 377.1 603.4 377.6Q603.1 378.2 602.7 378.5Q602.2 378.9 601.6 379.1Q600.9 379.3 600.1 379.3L600.1 379.3Q599.8 379.3 599.5 379.3Q599.2 379.3 598.9 379.2L598.9 379.2Q598.7 379.3 598.5 379.4Q598.3 379.6 598.3 379.9L598.3 379.9Q598.3 380.3 598.7 380.4Q599.0 380.5 599.5 380.5L599.5 380.5L601.4 380.5Q602.3 380.5 602.9 380.6Q603.5 380.8 603.9 381.1Q604.3 381.4 604.4 381.8Q604.6 382.3 604.6 382.8ZM602.7 382.9L602.7 382.9Q602.7 382.6 602.4 382.3Q602.1 382.1 601.3 382.1L601.3 382.1L598.5 382.1Q598.0 382.4 598.0 382.9L598.0 382.9Q598.0 383.4 598.3 383.7Q598.7 383.9 599.6 383.9L599.6 383.9L600.9 383.9Q602.7 383.9 602.7 382.9ZM600.1 378.0L600.1 378.0Q600.9 378.0 601.3 377.6Q601.6 377.2 601.6 376.6L601.6 376.6L601.6 376.2Q601.6 375.6 601.3 375.2Q600.9 374.8 600.1 374.8L600.1 374.8Q599.4 374.8 599.0 375.2Q598.6 375.6 598.6 376.2L598.6 376.2L598.6 376.6Q598.6 377.2 599.0 377.6Q599.4 378.0 600.1 378.0ZM610.3 372.4L610.3 372.4Q609.6 372.4 609.3 372.1Q609 371.8 609 371.3L609 371.3L609 371.0Q609 370.5 609.3 370.2Q609.6 369.9 610.3 369.9L610.3 369.9Q611.0 369.9 611.3 370.2Q611.6 370.5 611.6 371.0L611.6 371.0L611.6 371.3Q611.6 371.8 611.3 372.1Q611.0 372.4 610.3 372.4ZM606.6 381.9L606.6 380.3L609.3 380.3L609.3 375.3L606.6 375.3L606.6 373.7L611.3 373.7L611.3 380.3L613.9 380.3L613.9 381.9L606.6 381.9ZM617.8 381.9L615.8 381.9L615.8 373.7L617.8 373.7L617.8 375.1L617.9 375.1Q618.2 374.5 618.8 374.0Q619.3 373.5 620.3 373.5L620.3 373.5Q621.6 373.5 622.3 374.3Q623.1 375.1 623.1 376.6L623.1 376.6L623.1 381.9L621.0 381.9L621.0 376.9Q621.0 375.1 619.5 375.1L619.5 375.1Q619.2 375.1 618.9 375.2Q618.6 375.3 618.4 375.4Q618.1 375.6 618.0 375.8Q617.8 376.1 617.8 376.4L617.8 376.4L617.8 381.9ZM629.2 382.1L629.2 382.1Q628.2 382.1 627.4 381.8Q626.7 381.5 626.1 380.9Q625.6 380.4 625.4 379.6Q625.1 378.8 625.1 377.8L625.1 377.8Q625.1 376.8 625.4 376.0Q625.6 375.2 626.2 374.6Q626.7 374.1 627.4 373.8Q628.1 373.5 629.0 373.5L629.0 373.5Q629.9 373.5 630.6 373.8Q631.4 374.1 631.9 374.6Q632.4 375.2 632.6 375.9Q632.9 376.7 632.9 377.6L632.9 377.6L632.9 378.3L627.1 378.3L627.1 378.5Q627.1 379.4 627.7 379.9Q628.2 380.5 629.3 380.5L629.3 380.5Q630.0 380.5 630.6 380.2Q631.1 379.9 631.5 379.4L631.5 379.4L632.7 380.5Q632.2 381.2 631.4 381.7Q630.5 382.1 629.2 382.1ZM629.0 375.0L629.0 375.0Q628.2 375.0 627.7 375.5Q627.1 376.1 627.1 377.0L627.1 377.0L627.1 377.1L630.9 377.1L630.9 376.9Q630.9 376.0 630.4 375.5Q629.9 375.0 629.0 375.0ZM638.8 382.1L638.8 382.1Q637.8 382.1 637.0 381.8Q636.3 381.5 635.7 380.9Q635.2 380.4 635.0 379.6Q634.7 378.8 634.7 377.8L634.7 377.8Q634.7 376.8 635.0 376.0Q635.2 375.2 635.8 374.6Q636.3 374.1 637.0 373.8Q637.7 373.5 638.6 373.5L638.6 373.5Q639.5 373.5 640.2 373.8Q641.0 374.1 641.5 374.6Q642.0 375.2 642.2 375.9Q642.5 376.7 642.5 377.6L642.5 377.6L642.5 378.3L636.7 378.3L636.7 378.5Q636.7 379.4 637.3 379.9Q637.8 380.5 638.9 380.5L638.9 380.5Q639.6 380.5 640.2 380.2Q640.7 379.9 641.1 379.4L641.1 379.4L642.3 380.5Q641.8 381.2 641.0 381.7Q640.1 382.1 638.8 382.1ZM638.6 375.0L638.6 375.0Q637.8 375.0 637.3 375.5Q636.7 376.1 636.7 377.0L636.7 377.0L636.7 377.1L640.5 377.1L640.5 376.9Q640.5 376.0 640.0 375.5Q639.5 375.0 638.6 375.0ZM644.6 381.9L644.6 380.3L646.6 380.3L646.6 375.3L644.6 375.3L644.6 373.7L648.7 373.7L648.7 375.9L648.8 375.9Q648.9 375.5 649.1 375.1Q649.3 374.7 649.6 374.4Q650.0 374.1 650.4 373.9Q650.9 373.7 651.5 373.7L651.5 373.7L652.4 373.7L652.4 375.6L650.7 375.6Q649.8 375.6 649.2 376.1Q648.7 376.7 648.7 377.5L648.7 377.5L648.7 380.3L651.6 380.3L651.6 381.9L644.6 381.9ZM658.3 372.4L658.3 372.4Q657.6 372.4 657.3 372.1Q657.0 371.8 657.0 371.3L657.0 371.3L657.0 371.0Q657.0 370.5 657.3 370.2Q657.6 369.9 658.3 369.9L658.3 369.9Q659.0 369.9 659.3 370.2Q659.6 370.5 659.6 371.0L659.6 371.0L659.6 371.3Q659.6 371.8 659.3 372.1Q659.0 372.4 658.3 372.4ZM654.6 381.9L654.6 380.3L657.3 380.3L657.3 375.3L654.6 375.3L654.6 373.7L659.3 373.7L659.3 380.3L661.9 380.3L661.9 381.9L654.6 381.9ZM665.8 381.9L663.8 381.9L663.8 373.7L665.8 373.7L665.8 375.1L665.9 375.1Q666.2 374.5 666.8 374.0Q667.3 373.5 668.3 373.5L668.3 373.5Q669.6 373.5 670.3 374.3Q671.1 375.1 671.1 376.6L671.1 376.6L671.1 381.9L669.0 381.9L669.0 376.9Q669.0 375.1 667.5 375.1L667.5 375.1Q667.2 375.1 666.9 375.2Q666.6 375.3 666.4 375.4Q666.1 375.6 666.0 375.8Q665.8 376.1 665.8 376.4L665.8 376.4L665.8 381.9ZM681.4 382.8L681.4 382.8Q681.4 384.1 680.3 384.7Q679.3 385.3 677.0 385.3L677.0 385.3Q675.8 385.3 675.1 385.2Q674.3 385.0 673.9 384.8Q673.4 384.5 673.2 384.2Q673.0 383.8 673.0 383.4L673.0 383.4Q673.0 382.7 673.4 382.3Q673.8 381.9 674.6 381.8L674.6 381.8L674.6 381.6Q674.1 381.5 673.8 381.2Q673.5 380.9 673.5 380.4L673.5 380.4Q673.5 379.8 673.9 379.5Q674.3 379.2 675.0 379.0L675.0 379.0L675.0 378.9Q674.3 378.6 673.9 377.9Q673.4 377.3 673.4 376.4L673.4 376.4Q673.4 375.7 673.7 375.2Q673.9 374.6 674.4 374.3Q674.9 373.9 675.5 373.7Q676.1 373.5 676.9 373.5L676.9 373.5Q677.8 373.5 678.4 373.7L678.4 373.7L678.4 373.3Q678.4 372.9 678.7 372.5Q679.0 372.2 679.6 372.2L679.6 372.2L681.1 372.2L681.1 373.8L679.1 373.8L679.1 374.0Q679.8 374.4 680.1 375.0Q680.4 375.6 680.4 376.4L680.4 376.4Q680.4 377.1 680.2 377.6Q679.9 378.2 679.5 378.5Q679.0 378.9 678.4 379.1Q677.7 379.3 676.9 379.3L676.9 379.3Q676.6 379.3 676.3 379.3Q676.0 379.3 675.7 379.2L675.7 379.2Q675.5 379.3 675.3 379.4Q675.1 379.6 675.1 379.9L675.1 379.9Q675.1 380.3 675.5 380.4Q675.8 380.5 676.3 380.5L676.3 380.5L678.2 380.5Q679.1 380.5 679.7 380.6Q680.3 380.8 680.7 381.1Q681.1 381.4 681.2 381.8Q681.4 382.3 681.4 382.8ZM679.5 382.9L679.5 382.9Q679.5 382.6 679.2 382.3Q678.9 382.1 678.1 382.1L678.1 382.1L675.3 382.1Q674.8 382.4 674.8 382.9L674.8 382.9Q674.8 383.4 675.1 383.7Q675.5 383.9 676.4 383.9L676.4 383.9L677.7 383.9Q679.5 383.9 679.5 382.9ZM676.9 378.0L676.9 378.0Q677.7 378.0 678.1 377.6Q678.4 377.2 678.4 376.6L678.4 376.6L678.4 376.2Q678.4 375.6 678.1 375.2Q677.7 374.8 676.9 374.8L676.9 374.8Q676.2 374.8 675.8 375.2Q675.4 375.6 675.4 376.2L675.4 376.2L675.4 376.6Q675.4 377.2 675.8 377.6Q676.2 378.0 676.9 378.0Z M700.4 381.9L699.2 381.9Q698.5 381.9 698.1 381.5Q697.7 381.2 697.6 380.5L697.6 380.5L697.5 380.5Q697.3 381.3 696.6 381.7Q696.0 382.1 695.0 382.1L695.0 382.1Q693.8 382.1 693.0 381.5Q692.3 380.8 692.3 379.6L692.3 379.6Q692.3 377.1 696.0 377.1L696.0 377.1L697.4 377.1L697.4 376.6Q697.4 375.8 697.0 375.4Q696.6 375.0 695.8 375.0L695.8 375.0Q695.0 375.0 694.5 375.3Q694.0 375.6 693.7 376.1L693.7 376.1L692.5 375.1Q692.9 374.4 693.8 373.9Q694.6 373.5 696.0 373.5L696.0 373.5Q697.6 373.5 698.5 374.2Q699.5 375.0 699.5 376.5L699.5 376.5L699.5 380.4L700.4 380.4L700.4 381.9ZM695.7 380.7L695.7 380.7Q696.4 380.7 696.9 380.4Q697.4 380.0 697.4 379.4L697.4 379.4L697.4 378.3L696.0 378.3Q694.3 378.3 694.3 379.4L694.3 379.4L694.3 379.7Q694.3 380.2 694.7 380.5Q695.1 380.7 695.7 380.7ZM704.2 381.9L702.2 381.9L702.2 373.7L704.2 373.7L704.2 375.1L704.3 375.1Q704.6 374.5 705.2 374.0Q705.7 373.5 706.7 373.5L706.7 373.5Q708.0 373.5 708.7 374.3Q709.5 375.1 709.5 376.6L709.5 376.6L709.5 381.9L707.4 381.9L707.4 376.9Q707.4 375.1 705.9 375.1L705.9 375.1Q705.6 375.1 705.3 375.2Q705.0 375.3 704.8 375.4Q704.5 375.6 704.4 375.8Q704.2 376.1 704.2 376.4L704.2 376.4L704.2 381.9ZM717.0 381.9L717.0 380.5L716.9 380.5Q716.6 381.2 716.0 381.7Q715.4 382.1 714.5 382.1L714.5 382.1Q713.8 382.1 713.2 381.9Q712.6 381.6 712.2 381.1Q711.8 380.5 711.5 379.7Q711.3 378.9 711.3 377.8L711.3 377.8Q711.3 375.6 712.2 374.5Q713.0 373.5 714.5 373.5L714.5 373.5Q715.4 373.5 716.0 373.9Q716.6 374.4 716.9 375.1L716.9 375.1L717.0 375.1L717.0 370.1L719.1 370.1L719.1 381.9L717.0 381.9ZM715.3 380.5L715.3 380.5Q715.7 380.5 716.0 380.4Q716.3 380.3 716.5 380.1Q716.8 380.0 716.9 379.7Q717.0 379.4 717.0 379.1L717.0 379.1L717.0 376.5Q717.0 376.1 716.9 375.9Q716.8 375.6 716.5 375.5Q716.3 375.3 716.0 375.2Q715.7 375.1 715.3 375.1L715.3 375.1Q714.4 375.1 714.0 375.7Q713.5 376.2 713.5 377.1L713.5 377.1L713.5 378.5Q713.5 379.4 714.0 379.9Q714.4 380.5 715.3 380.5Z M738.3 381.9L735.2 381.9Q734.0 381.9 733.4 381.3Q732.9 380.7 732.9 379.7L732.9 379.7L732.9 375.3L730.5 375.3L730.5 373.7L732.1 373.7Q732.6 373.7 732.8 373.5Q733 373.3 733 372.8L733 372.8L733 370.8L734.9 370.8L734.9 373.7L738.3 373.7L738.3 375.3L734.9 375.3L734.9 380.3L738.3 380.3L738.3 381.9ZM744.4 382.1L744.4 382.1Q743.4 382.1 742.6 381.8Q741.9 381.5 741.3 380.9Q740.8 380.4 740.6 379.6Q740.3 378.8 740.3 377.8L740.3 377.8Q740.3 376.8 740.6 376.0Q740.8 375.2 741.4 374.6Q741.9 374.1 742.6 373.8Q743.3 373.5 744.2 373.5L744.2 373.5Q745.1 373.5 745.8 373.8Q746.6 374.1 747.1 374.6Q747.6 375.2 747.8 375.9Q748.1 376.7 748.1 377.6L748.1 377.6L748.1 378.3L742.3 378.3L742.3 378.5Q742.3 379.4 742.9 379.9Q743.4 380.5 744.5 380.5L744.5 380.5Q745.2 380.5 745.8 380.2Q746.3 379.9 746.7 379.4L746.7 379.4L747.9 380.5Q747.4 381.2 746.6 381.7Q745.7 382.1 744.4 382.1ZM744.2 375.0L744.2 375.0Q743.4 375.0 742.9 375.5Q742.3 376.1 742.3 377.0L742.3 377.0L742.3 377.1L746.1 377.1L746.1 376.9Q746.1 376.0 745.6 375.5Q745.1 375.0 744.2 375.0ZM754.1 382.1L754.1 382.1Q753.2 382.1 752.4 381.8Q751.7 381.5 751.2 380.9Q750.6 380.4 750.4 379.6Q750.1 378.8 750.1 377.8L750.1 377.8Q750.1 376.8 750.4 376.0Q750.6 375.2 751.2 374.6Q751.7 374.1 752.4 373.8Q753.2 373.5 754.1 373.5L754.1 373.5Q755.4 373.5 756.2 374.0Q757.0 374.6 757.4 375.5L757.4 375.5L755.8 376.3Q755.6 375.8 755.2 375.5Q754.8 375.1 754.1 375.1L754.1 375.1Q753.2 375.1 752.7 375.7Q752.2 376.2 752.2 377.1L752.2 377.1L752.2 378.5Q752.2 379.4 752.7 379.9Q753.2 380.5 754.1 380.5L754.1 380.5Q754.9 380.5 755.3 380.1Q755.8 379.8 756.0 379.2L756.0 379.2L757.6 380.1Q757.1 381.0 756.3 381.6Q755.5 382.1 754.1 382.1ZM759.8 381.9L759.8 370.1L761.8 370.1L761.8 375.1L761.9 375.1Q762.2 374.5 762.8 374.0Q763.3 373.5 764.3 373.5L764.3 373.5Q765.6 373.5 766.3 374.3Q767.1 375.1 767.1 376.6L767.1 376.6L767.1 381.9L765.0 381.9L765.0 376.9Q765.0 375.1 763.5 375.1L763.5 375.1Q763.2 375.1 762.9 375.2Q762.6 375.3 762.4 375.4Q762.1 375.6 762.0 375.8Q761.8 376.1 761.8 376.4L761.8 376.4L761.8 381.9L759.8 381.9Z M786.3 381.9L783.2 381.9Q782.0 381.9 781.4 381.3Q780.9 380.7 780.9 379.7L780.9 379.7L780.9 375.3L778.5 375.3L778.5 373.7L780.1 373.7Q780.6 373.7 780.8 373.5Q781 373.3 781 372.8L781 372.8L781 370.8L782.9 370.8L782.9 373.7L786.3 373.7L786.3 375.3L782.9 375.3L782.9 380.3L786.3 380.3L786.3 381.9ZM792.4 382.1L792.4 382.1Q791.4 382.1 790.6 381.8Q789.9 381.5 789.3 380.9Q788.8 380.4 788.6 379.6Q788.3 378.8 788.3 377.8L788.3 377.8Q788.3 376.8 788.6 376.0Q788.8 375.2 789.4 374.6Q789.9 374.1 790.6 373.8Q791.3 373.5 792.2 373.5L792.2 373.5Q793.1 373.5 793.8 373.8Q794.6 374.1 795.1 374.6Q795.6 375.2 795.8 375.9Q796.1 376.7 796.1 377.6L796.1 377.6L796.1 378.3L790.3 378.3L790.3 378.5Q790.3 379.4 790.9 379.9Q791.4 380.5 792.5 380.5L792.5 380.5Q793.2 380.5 793.8 380.2Q794.3 379.9 794.7 379.4L794.7 379.4L795.9 380.5Q795.4 381.2 794.6 381.7Q793.7 382.1 792.4 382.1ZM792.2 375.0L792.2 375.0Q791.4 375.0 790.9 375.5Q790.3 376.1 790.3 377.0L790.3 377.0L790.3 377.1L794.1 377.1L794.1 376.9Q794.1 376.0 793.6 375.5Q793.1 375.0 792.2 375.0ZM798.2 381.9L798.2 380.3L800.2 380.3L800.2 375.3L798.2 375.3L798.2 373.7L802.3 373.7L802.3 375.9L802.4 375.9Q802.5 375.5 802.7 375.1Q802.9 374.7 803.2 374.4Q803.6 374.1 804.0 373.9Q804.5 373.7 805.1 373.7L805.1 373.7L806.0 373.7L806.0 375.6L804.3 375.6Q803.4 375.6 802.8 376.1Q802.3 376.7 802.3 377.5L802.3 377.5L802.3 380.3L805.2 380.3L805.2 381.9L798.2 381.9ZM808.9 381.9L807.2 381.9L807.2 373.7L808.9 373.7L808.9 374.8L809.0 374.8Q809.2 374.3 809.5 373.9Q809.9 373.5 810.6 373.5L810.6 373.5Q811.2 373.5 811.5 373.8Q811.9 374.2 812.0 374.9L812.0 374.9L812.1 374.9Q812.3 374.3 812.7 373.9Q813.1 373.5 813.9 373.5L813.9 373.5Q814.8 373.5 815.2 374.1Q815.6 374.8 815.6 376.1L815.6 376.1L815.6 381.9L813.9 381.9L813.9 376.3Q813.9 375.6 813.7 375.3Q813.5 375.0 813.1 375.0L813.1 375.0Q812.7 375.0 812.5 375.3Q812.2 375.5 812.2 376.0L812.2 376.0L812.2 381.9L810.6 381.9L810.6 376.3Q810.6 375.6 810.4 375.3Q810.2 375.0 809.8 375.0L809.8 375.0Q809.4 375.0 809.1 375.3Q808.9 375.5 808.9 376.0L808.9 376.0L808.9 381.9ZM821.0 382.1L821.0 382.1Q819.6 382.1 818.6 381.7Q817.6 381.3 817.1 380.5L817.1 380.5L818.3 379.5Q818.8 380.0 819.4 380.3Q820.1 380.6 821.0 380.6L821.0 380.6Q821.8 380.6 822.2 380.4Q822.7 380.1 822.7 379.6L822.7 379.6Q822.7 379.1 822.4 379.0Q822.1 378.8 821.5 378.7L821.5 378.7L820.2 378.5Q819.7 378.5 819.2 378.3Q818.7 378.1 818.4 377.9Q818.0 377.6 817.8 377.2Q817.5 376.8 817.5 376.1L817.5 376.1Q817.5 374.9 818.5 374.2Q819.5 373.5 821.2 373.5L821.2 373.5Q822.4 373.5 823.2 373.8Q824.0 374.1 824.6 374.8L824.6 374.8L823.5 375.9Q823.2 375.6 822.6 375.3Q822.0 375.0 821.1 375.0L821.1 375.0Q819.5 375.0 819.5 375.9L819.5 375.9Q819.5 376.4 819.8 376.6Q820.2 376.7 820.7 376.8L820.7 376.8L822.0 377.0Q822.5 377.1 823.0 377.2Q823.5 377.4 823.9 377.7Q824.2 377.9 824.5 378.4Q824.7 378.8 824.7 379.4L824.7 379.4Q824.7 380.7 823.7 381.4Q822.7 382.1 821.0 382.1ZM830.6 382.1L830.6 382.1Q829.8 382.1 829.4 381.7Q829.1 381.4 829.1 380.9L829.1 380.9L829.1 380.4Q829.1 379.9 829.4 379.5Q829.8 379.2 830.6 379.2L830.6 379.2Q831.4 379.2 831.8 379.5Q832.1 379.9 832.1 380.4L832.1 380.4L832.1 380.9Q832.1 381.4 831.8 381.7Q831.4 382.1 830.6 382.1Z "/></svg>